# xmcd CD database file
#
# Track frame offsets:
#	150
#	24795
#	52305
#	76605
#	93235
#	113107
#
# Disc length: 1761 seconds
#
# Revision: 8
# Processed by: cddbd v1.5.2PL0 Copyright (c) Steve Scherf et al.
# Submitted via: CDex 1.70beta3
#
DISCID=3a06df06
DTITLE=山崎まさよし - ONE KNIGHT STANDS disc_03
DYEAR=2000
DGENRE=Blues
TTITLE0=ドミノ
TTITLE1=江古田
TTITLE2=心拍数
TTITLE3=お家へ帰ろう
TTITLE4=中華料理
TTITLE5=CROSSROADS
EXTD=YEAR: 2000
EXTT0=
EXTT1=
EXTT2=
EXTT3=
EXTT4=
EXTT5=
PLAYORDER=
